<svg width="32" height="32" viewBox="0 0 32 32" fill="none" xmlns="http://www.w3.org/2000/svg">
<path d="M16 10.6562C16.466 10.6562 16.8438 10.2785 16.8438 9.8125C16.8438 9.34651 16.466 8.96875 16 8.96875C15.534 8.96875 15.1562 9.34651 15.1562 9.8125C15.1562 10.2785 15.534 10.6562 16 10.6562Z" stroke="white" stroke-width="1.5" stroke-linecap="round" stroke-linejoin="round"/>
<path d="M16 16.8438C16.466 16.8438 16.8438 16.466 16.8438 16C16.8438 15.534 16.466 15.1562 16 15.1562C15.534 15.1562 15.1562 15.534 15.1562 16C15.1562 16.466 15.534 16.8438 16 16.8438Z" stroke="white" stroke-width="1.5" stroke-linecap="round" stroke-linejoin="round"/>
<path d="M16 23.0312C16.466 23.0312 16.8438 22.6535 16.8438 22.1875C16.8438 21.7215 16.466 21.3438 16 21.3438C15.534 21.3438 15.1562 21.7215 15.1562 22.1875C15.1562 22.6535 15.534 23.0312 16 23.0312Z" stroke="white" stroke-width="1.5" stroke-linecap="round" stroke-linejoin="round"/>
</svg>
